<svg width="32" height="32" viewBox="0 0 32 32" fill="none" xmlns="http://www.w3.org/2000/svg">
  <!-- Background -->
  <rect width="32" height="32" rx="6" fill="#0a0a0a"/>
  
  <!-- Power BI inspired chart bars -->
  <rect x="6" y="20" width="3" height="8" rx="1" fill="#00d4ff"/>
  <rect x="11" y="16" width="3" height="12" rx="1" fill="#0099cc"/>
  <rect x="16" y="12" width="3" height="16" rx="1" fill="#00d4ff"/>
  <rect x="21" y="8" width="3" height="20" rx="1" fill="#0066ff"/>
  
  <!-- Data points/dots -->
  <circle cx="7.5" cy="19" r="1.5" fill="#00ff88"/>
  <circle cx="12.5" cy="15" r="1.5" fill="#00ff88"/>
  <circle cx="17.5" cy="11" r="1.5" fill="#00ff88"/>
  <circle cx="22.5" cy="7" r="1.5" fill="#00ff88"/>
  
  <!-- Connection lines -->
  <path d="M9 19L11 15" stroke="#00ff88" stroke-width="1" opacity="0.6"/>
  <path d="M14 15L16 11" stroke="#00ff88" stroke-width="1" opacity="0.6"/>
  <path d="M19 11L21 7" stroke="#00ff88" stroke-width="1" opacity="0.6"/>
  
  <!-- Subtle glow effect -->
  <defs>
    <filter id="glow">
      <feGaussianBlur stdDeviation="1" result="coloredBlur"/>
      <feMerge> 
        <feMergeNode in="coloredBlur"/>
        <feMergeNode in="SourceGraphic"/>
      </feMerge>
    </filter>
  </defs>
  
  <!-- Apply glow to main elements -->
  <g filter="url(#glow)">
    <rect x="6" y="20" width="3" height="8" rx="1" fill="#00d4ff" opacity="0.3"/>
    <rect x="11" y="16" width="3" height="12" rx="1" fill="#0099cc" opacity="0.3"/>
    <rect x="16" y="12" width="3" height="16" rx="1" fill="#00d4ff" opacity="0.3"/>
    <rect x="21" y="8" width="3" height="20" rx="1" fill="#0066ff" opacity="0.3"/>
  </g>
</svg>
